<svg xmlns="http://www.w3.org/2000/svg" xmlns:xlink="http://www.w3.org/1999/xlink" width="40" zoomAndPan="magnify" viewBox="0 0 30 30.000001" height="40" preserveAspectRatio="xMidYMid meet" version="1.2"><defs><clipPath id="d460a55b60"><path d="M 0.484375 4.320312 L 29.515625 4.320312 L 29.515625 26.09375 L 0.484375 26.09375 Z M 0.484375 4.320312 "/></clipPath></defs><g id="f09873877e"><g clip-rule="nonzero" clip-path="url(#d460a55b60)"><path style=" stroke:none;fill-rule:evenodd;fill:#000000;fill-opacity:1;" d="M 28.65625 5.167969 C 27.804688 4.320312 26.425781 4.320312 25.574219 5.167969 C 25.574219 5.167969 12.316406 18.40625 10.023438 20.691406 C 9.933594 20.78125 9.816406 20.832031 9.6875 20.832031 C 9.5625 20.832031 9.441406 20.78125 9.355469 20.691406 C 8.191406 19.53125 4.414062 15.761719 4.414062 15.761719 C 3.5625 14.910156 2.179688 14.910156 1.332031 15.761719 C 0.480469 16.609375 0.480469 17.988281 1.332031 18.835938 C 1.332031 18.835938 6.441406 23.941406 7.8125 25.308594 C 8.308594 25.804688 8.984375 26.085938 9.6875 26.085938 C 10.394531 26.085938 11.066406 25.804688 11.566406 25.308594 C 13.984375 22.894531 28.65625 8.246094 28.65625 8.246094 C 29.507812 7.394531 29.507812 6.015625 28.65625 5.167969 Z M 28.65625 5.167969 "/><path style=" stroke:none;fill-rule:evenodd;fill:#000000;fill-opacity:1;" d="M 28.65625 5.167969 C 27.804688 4.320312 26.425781 4.320312 25.574219 5.167969 C 25.574219 5.167969 12.316406 18.40625 10.023438 20.691406 C 9.933594 20.78125 9.816406 20.832031 9.6875 20.832031 C 9.5625 20.832031 9.441406 20.78125 9.355469 20.691406 C 8.191406 19.53125 4.414062 15.761719 4.414062 15.761719 C 3.5625 14.910156 2.179688 14.910156 1.332031 15.761719 C 0.480469 16.609375 0.480469 17.988281 1.332031 18.835938 C 1.332031 18.835938 6.441406 23.941406 7.8125 25.308594 C 8.308594 25.804688 8.984375 26.085938 9.6875 26.085938 C 10.394531 26.085938 11.066406 25.804688 11.566406 25.308594 C 13.984375 22.894531 28.65625 8.246094 28.65625 8.246094 C 29.507812 7.394531 29.507812 6.015625 28.65625 5.167969 Z M 28.65625 5.167969 "/></g></g></svg>