<svg xmlns="http://www.w3.org/2000/svg" xmlns:xlink="http://www.w3.org/1999/xlink" width="600" zoomAndPan="magnify" viewBox="0 0 450 299.999988" height="400" preserveAspectRatio="xMidYMid meet" version="1.2"><g id="bad989b9b9"><rect x="0" width="450" y="0" height="299.999988" style="fill:#ffffff;fill-opacity:1;stroke:none;"/><rect x="0" width="450" y="0" height="299.999988" style="fill:#ffffff;fill-opacity:1;stroke:none;"/><path style=" stroke:none;fill-rule:nonzero;fill:#eba921;fill-opacity:1;" d="M 114.707031 324.226562 L 119.09375 323.191406 L 68.273438 108.734375 L 0.394531 108.734375 L 0.394531 324.207031 L 4.898438 324.207031 L 4.898438 130.25 L 50.34375 322.03125 L 55.242188 323.191406 L 50.109375 301.53125 L 109.320312 301.53125 Z M 37.210938 247.109375 L 96.425781 247.109375 L 101.808594 269.820312 L 42.597656 269.820312 Z M 76.027344 160.96875 L 16.804688 160.96875 L 11.417969 138.257812 L 70.640625 138.257812 Z M 77.089844 165.46875 L 82.476562 188.179688 L 23.253906 188.179688 L 17.867188 165.46875 Z M 83.539062 192.679688 L 88.921875 215.390625 L 29.699219 215.390625 L 24.316406 192.679688 Z M 89.984375 219.898438 L 95.371094 242.609375 L 36.148438 242.609375 L 30.761719 219.898438 Z M 69.578125 133.75 L 10.355469 133.75 L 5.492188 113.222656 L 64.707031 113.222656 Z M 49.046875 297.042969 L 43.660156 274.328125 L 102.871094 274.328125 L 108.257812 297.042969 Z M 49.046875 297.042969 "/><path style=" stroke:none;fill-rule:nonzero;fill:#fbbd9e;fill-opacity:1;" d="M 75.820312 56.355469 L 84.042969 46.742188 C 84.042969 46.742188 91.148438 51.152344 86.5 55.695312 C 81.84375 60.25 75.972656 58.511719 75.972656 58.511719 Z M 75.820312 56.355469 "/><path style=" stroke:none;fill-rule:nonzero;fill:#e96852;fill-opacity:1;" d="M 171.910156 77.066406 L 141.121094 85.140625 C 141.632812 87.101562 145.378906 90.699219 147.089844 97.242188 C 148.800781 103.773438 144.957031 110.441406 138.5 112.136719 C 132.042969 113.828125 125.414062 109.914062 123.695312 103.378906 C 121.972656 96.835938 123.46875 91.871094 122.957031 89.910156 L 92.164062 97.980469 L 71.207031 18.175781 L 150.964844 -2.730469 L 159.03125 27.992188 C 157.085938 28.503906 152.160156 26.964844 145.6875 28.667969 C 139.230469 30.359375 135.375 37.027344 137.09375 43.558594 C 138.804688 50.089844 145.433594 54.003906 151.898438 52.3125 C 158.375 50.613281 161.914062 46.859375 163.859375 46.355469 L 171.910156 77.066406 M 75.171875 145.03125 L 68.300781 127.511719 L 54.285156 124.085938 C 54.285156 124.085938 50.261719 129.320312 49.074219 135.59375 C 49.8125 135.296875 74.746094 144.734375 74.746094 144.734375 M 83.257812 155.992188 C 83.257812 155.992188 82.773438 171.164062 91.355469 180.800781 C 99.9375 190.4375 105.449219 168.292969 105.359375 167.679688 C 105.269531 167.070312 84.527344 153.867188 84.527344 153.867188 Z M 305.699219 105.035156 C 299.007812 105.035156 294.625 107.769531 292.617188 107.769531 L 292.617188 76.015625 L 210.160156 76.015625 L 210.160156 107.769531 C 208.148438 107.769531 203.765625 105.035156 197.074219 105.035156 C 190.390625 105.035156 184.976562 110.507812 184.976562 117.253906 C 184.976562 124.003906 190.390625 129.472656 197.074219 129.472656 C 203.765625 129.472656 208.148438 126.738281 210.160156 126.738281 L 210.160156 158.496094 L 247.0625 191.886719 C 247.0625 189.855469 244.363281 185.425781 244.363281 178.667969 C 244.363281 171.917969 249.773438 166.449219 256.457031 166.449219 C 263.140625 166.449219 268.550781 171.917969 268.550781 178.667969 C 268.550781 185.433594 265.851562 189.863281 265.851562 191.886719 L 292.625 158.496094 L 292.625 126.757812 C 294.632812 126.757812 299.019531 129.492188 305.710938 129.492188 C 312.390625 129.492188 317.804688 124.023438 317.804688 117.273438 C 317.796875 110.515625 312.382812 105.035156 305.699219 105.035156 Z M 305.699219 105.035156 "/><path style=" stroke:none;fill-rule:nonzero;fill:#09262c;fill-opacity:0.2;" d="M 84.519531 153.867188 C 84.519531 153.867188 105.257812 167.0625 105.347656 167.679688 C 105.441406 168.292969 99.9375 190.4375 91.34375 180.800781 C 82.761719 171.164062 83.25 155.992188 83.25 155.992188 Z M 84.519531 153.867188 "/><path style=" stroke:none;fill-rule:nonzero;fill:#09262c;fill-opacity:1;" d="M 26.78125 86.535156 C 26.566406 86.210938 46.550781 85.75 46.550781 85.75 L 66.183594 78.128906 C 74.136719 75.042969 82.285156 82.160156 80.277344 90.449219 L 70.53125 130.761719 L 66.742188 129.941406 L 62.320312 130.789062 L 53.648438 125.378906 L 51.828125 124.085938 L 57.042969 105.585938 L 40.335938 112.109375 C 29.53125 116.328125 17.929688 107.636719 19.226562 96.117188 C 19.234375 96.019531 19.253906 95.910156 19.261719 95.8125 C 19.261719 95.820312 27 86.859375 26.78125 86.535156 Z M 26.78125 86.535156 "/><path style=" stroke:none;fill-rule:nonzero;fill:#5f433d;fill-opacity:1;" d="M 59.484375 70.273438 C 49.710938 62.265625 41.425781 45.230469 41.425781 45.230469 L 44.703125 43.433594 L 37.363281 43.117188 L 45.046875 41.300781 C 48.226562 41.300781 51.160156 42.984375 52.773438 45.71875 L 61.292969 60.1875 L 74.566406 52.601562 C 74.566406 52.601562 75.621094 53.84375 75.964844 54.417969 C 76.296875 54.996094 69.261719 78.28125 59.484375 70.273438 Z M 79.636719 123.859375 C 73.125 123.859375 67.839844 129.132812 67.839844 135.648438 C 67.839844 141.910156 72.660156 147.632812 72.660156 147.632812 L 77.988281 150.691406 L 79.628906 147.433594 C 86.140625 147.433594 89.660156 143.710938 89.660156 137.203125 C 89.660156 135.917969 91.21875 133.117188 90.832031 131.957031 C 89.292969 127.253906 84.859375 123.859375 79.636719 123.859375 Z M 442.976562 159.878906 C 439.542969 153.949219 434.628906 153.761719 433.167969 149.550781 C 431.710938 145.339844 432.996094 141.246094 430.65625 135.332031 C 429.242188 130.871094 425.070312 127.628906 420.136719 127.628906 C 416.320312 127.628906 412.960938 129.566406 410.976562 132.507812 C 409.644531 134.613281 408.589844 137.996094 408.589844 137.996094 L 413.335938 149.765625 C 412.921875 150.503906 414.949219 182.035156 430.035156 178.972656 C 445.109375 175.914062 446.414062 165.808594 442.976562 159.878906 Z M 292.625 158.511719 L 260.789062 158.511719 C 260.789062 156.480469 263.492188 152.050781 263.492188 145.292969 C 263.492188 138.546875 258.078125 133.074219 251.394531 133.074219 C 244.714844 133.074219 239.300781 138.546875 239.300781 145.292969 C 239.300781 152.058594 242.003906 156.488281 242.003906 158.511719 L 210.167969 158.511719 L 210.167969 190.265625 C 212.175781 190.265625 216.5625 187.53125 223.253906 187.53125 C 229.933594 187.53125 235.347656 193.003906 235.347656 199.75 C 235.347656 206.5 229.933594 211.972656 223.253906 211.972656 C 216.5625 211.972656 212.175781 209.234375 210.167969 209.234375 L 210.167969 240.992188 L 242.003906 277.15625 C 242.003906 279.1875 239.300781 283.617188 239.300781 290.375 C 239.300781 297.121094 244.714844 302.59375 251.394531 302.59375 C 258.078125 302.59375 263.492188 297.121094 263.492188 290.375 C 263.492188 283.605469 260.789062 279.179688 260.789062 277.15625 L 292.625 240.992188 L 305.878906 209.234375 L 305.878906 190.257812 C 305.878906 191.085938 292.625 158.511719 292.625 158.511719 Z M 292.625 158.511719 "/><path style=" stroke:none;fill-rule:nonzero;fill:#09262c;fill-opacity:1;" d="M 79.59375 323.714844 L 47.710938 323.714844 C 47 316.335938 50.785156 306.8125 50.964844 307.085938 C 50.964844 307.085938 53.511719 303.84375 53.871094 304.203125 C 54.234375 304.5625 60.691406 310.449219 60.691406 310.449219 L 70.75 314.191406 L 73.074219 315.597656 C 76.132812 317.449219 78.449219 320.320312 79.59375 323.714844 Z M 109.203125 316.515625 L 106.359375 314.785156 L 96.9375 311.042969 C 96.9375 311.042969 82.683594 298.941406 82.132812 305.777344 C 81.582031 312.617188 84.042969 323.714844 84.042969 323.714844 L 114.6875 323.820312 C 113.859375 320.769531 111.898438 318.160156 109.203125 316.515625 Z M 436.832031 221.140625 C 435.679688 211.773438 430.195312 203.765625 430.195312 203.765625 L 429.960938 197.925781 L 405.429688 206.015625 L 403.449219 257.519531 L 419.832031 267.625 L 436.824219 257.863281 L 440.878906 257.863281 C 440.886719 257.863281 437.988281 230.507812 436.832031 221.140625 Z M 260.789062 241.007812 C 260.789062 243.042969 263.492188 247.46875 263.492188 254.226562 C 263.492188 260.976562 258.078125 266.449219 251.394531 266.449219 C 244.714844 266.449219 239.300781 260.976562 239.300781 254.226562 C 239.300781 247.460938 242.003906 243.035156 242.003906 241.007812 L 210.167969 241.007812 L 210.167969 272.765625 C 208.160156 272.765625 203.773438 270.027344 197.082031 270.027344 C 190.398438 270.027344 184.988281 275.5 184.988281 282.25 C 184.988281 288.996094 190.398438 294.46875 197.082031 294.46875 C 203.773438 294.46875 208.160156 291.734375 210.167969 291.734375 L 210.167969 323.75 L 292.625 323.75 L 317.804688 312.007812 L 326.78125 271.460938 L 292.625 240.992188 L 260.789062 240.992188 Z M 199.144531 176.050781 C 205.753906 176.996094 211.898438 172.351562 212.851562 165.664062 C 213.804688 158.980469 209.230469 152.796875 202.621094 151.84375 C 196 150.890625 191.273438 152.976562 189.28125 152.691406 L 193.804688 121.25 L 159.691406 116.355469 C 159.402344 118.363281 161.445312 123.128906 160.484375 129.824219 C 159.519531 136.511719 153.386719 141.15625 146.777344 140.210938 C 140.164062 139.265625 135.582031 133.074219 136.546875 126.386719 C 137.507812 119.695312 140.8125 115.699219 141.101562 113.683594 L 109.589844 109.164062 L 100.386719 191.707031 L 131.96875 195.71875 C 132.257812 193.714844 130.214844 188.945312 131.179688 182.25 C 132.140625 175.5625 138.273438 170.921875 144.882812 171.867188 C 151.496094 172.8125 156.078125 179 155.117188 185.6875 C 154.152344 192.382812 150.847656 196.378906 150.558594 198.394531 L 182.070312 202.910156 L 186.589844 171.46875 C 188.570312 171.777344 192.523438 175.105469 199.144531 176.050781 Z M 199.144531 176.050781 "/><path style=" stroke:none;fill-rule:nonzero;fill:#eba921;fill-opacity:1;" d="M 405.441406 206.015625 C 405.441406 206.015625 406.980469 194.488281 404.441406 184.742188 C 401.898438 174.996094 404.117188 171.101562 404.117188 171.101562 L 394.867188 169.902344 C 387.265625 168.921875 380.457031 164.8125 376.042969 158.59375 L 375.082031 241.53125 L 344.832031 250.347656 L 326.042969 250.347656 L 292.625 241.019531 L 292.625 209.261719 C 290.617188 209.261719 286.230469 212 279.539062 212 C 272.855469 212 267.445312 206.527344 267.445312 199.777344 C 267.445312 193.03125 272.855469 187.558594 279.539062 187.558594 C 286.230469 187.558594 290.617188 190.292969 292.625 190.292969 L 292.625 158.539062 L 325.441406 157.449219 C 325.441406 159.484375 322.738281 163.910156 322.738281 170.667969 C 322.738281 177.417969 328.152344 182.890625 334.835938 182.890625 C 341.515625 182.890625 346.929688 177.417969 346.929688 170.667969 C 346.929688 163.902344 344.226562 159.476562 344.226562 157.449219 L 375.261719 157.449219 L 369.902344 149.207031 L 371.738281 139.8125 L 379.726562 137.554688 L 381.230469 132.535156 L 388.140625 127.234375 L 403.207031 142.765625 L 412.210938 146.203125 L 414.011719 153.5 C 415.4375 153.609375 416.832031 153.816406 418.183594 154.085938 C 425.917969 155.625 431.761719 162.046875 432.65625 169.886719 C 434.429688 185.355469 434.671875 206.050781 434.671875 206.050781 L 405.441406 206.050781 Z M 181.035156 227.789062 C 181.035156 221.042969 175.621094 215.570312 168.9375 215.570312 C 162.257812 215.570312 156.84375 221.042969 156.84375 227.789062 C 156.84375 234.558594 159.546875 238.984375 159.546875 241.007812 L 127.710938 241.523438 L 127.710938 323.765625 L 210.167969 323.765625 L 210.167969 292.011719 C 208.160156 292.011719 203.773438 294.746094 197.082031 294.746094 C 190.398438 294.746094 184.988281 289.277344 184.988281 282.527344 C 184.988281 275.777344 190.398438 270.308594 197.082031 270.308594 C 203.773438 270.308594 208.160156 273.042969 210.167969 273.042969 L 210.167969 241.027344 L 178.332031 241.027344 C 178.332031 238.984375 181.035156 234.558594 181.035156 227.789062 Z M 181.035156 227.789062 "/><path style=" stroke:none;fill-rule:nonzero;fill:#09262c;fill-opacity:0.15;" d="M 37.355469 43.117188 L 45.039062 41.300781 C 48.21875 41.300781 51.152344 42.984375 52.765625 45.71875 L 61.285156 60.1875 L 74.558594 52.601562 C 74.558594 52.601562 75.613281 53.84375 75.953125 54.417969 C 76.296875 54.996094 69.253906 78.28125 59.484375 70.273438 C 49.710938 62.265625 41.425781 45.230469 41.425781 45.230469 L 44.703125 43.433594 M 412.5625 147.6875 L 412.183594 146.175781 L 403.179688 142.738281 L 388.113281 127.207031 L 380.230469 133.253906 L 379.699219 137.527344 C 379.699219 137.527344 390.445312 150.925781 391.210938 150.910156 C 391.976562 150.890625 412.183594 153.472656 412.183594 153.472656 Z M 412.5625 147.6875 "/><path style=" stroke:none;fill-rule:nonzero;fill:#fbbd9e;fill-opacity:1;" d="M 58.257812 305.183594 L 70.75 314.191406 C 68.378906 316.117188 65.011719 316.226562 62.535156 314.445312 C 58.113281 311.269531 51.746094 306.695312 51.511719 306.480469 M 87.121094 307.074219 C 87.355469 307.289062 93.722656 311.863281 98.144531 315.039062 C 100.628906 316.820312 103.988281 316.710938 106.359375 314.785156 L 93.867188 305.777344 M 125.695312 165.628906 C 125.738281 165.640625 129.152344 162.707031 130.464844 161.789062 C 131.78125 160.871094 133.898438 156.785156 133.582031 155.585938 C 133.582031 155.585938 134.835938 153.167969 133.609375 152.175781 C 133.960938 150.882812 133.265625 149.773438 131.953125 149.953125 C 131.554688 148.515625 129.386719 148.738281 126.640625 151.800781 C 126.117188 151.25 124.34375 152.007812 122.917969 152.753906 C 121.714844 153.390625 120.75 154.410156 120.183594 155.652344 L 117.757812 160.960938 M 91.433594 138.570312 L 91.433594 135.648438 C 91.433594 134.351562 91.21875 133.117188 90.832031 131.949219 C 89.355469 131.238281 87.023438 132.921875 86.878906 135.351562 C 86.714844 138.140625 86.222656 138.96875 82.519531 138.878906 C 82.511719 139.453125 81.539062 141.792969 78.574219 141.792969 L 78.574219 140.75 C 78.574219 139.886719 77.871094 139.15625 77.007812 139.164062 C 75.785156 139.183594 74.792969 140.171875 74.792969 141.40625 C 74.792969 143.179688 75.972656 144.671875 77.59375 145.140625 L 76.269531 147.625 L 72.648438 147.625 L 72.648438 155.03125 L 85.824219 157.980469 L 85.429688 150.25 L 86.84375 150.207031 C 89.390625 150.125 91.417969 148.039062 91.417969 145.492188 L 91.417969 143.972656 C 91.5 143.933594 92.003906 143.933594 92.535156 143.945312 C 93.109375 143.953125 93.507812 143.359375 93.273438 142.835938 Z M 91.433594 138.570312 "/><path style=" stroke:none;fill-rule:nonzero;fill:#5f433d;fill-opacity:1;" d="M 88.480469 208.867188 L 99.035156 307.75 L 78.359375 307.75 C 78.359375 307.75 74.476562 272.898438 74.117188 272.367188 C 73.757812 271.835938 67.847656 307.75 67.847656 307.75 C 67.847656 307.75 48.972656 307.40625 49.289062 307.75 C 49.605469 308.09375 51.277344 282.257812 52.367188 273.332031 C 53.457031 264.40625 57.050781 260.660156 57.050781 260.660156 C 57.050781 260.660156 58.914062 243.960938 57.816406 238.632812 C 56.71875 233.304688 56.320312 222.363281 61.554688 215.570312 Z M 84.347656 66.34375 L 83.449219 64.792969 L 84.042969 58.332031 L 77.242188 56.578125 L 75.953125 54.417969 L 60.519531 63.4375 L 48.324219 44.171875 C 47.839844 40.050781 43.769531 38.761719 40.660156 39.09375 C 40.265625 39.140625 39.300781 40.320312 38.914062 40.417969 C 36.960938 40.902344 35.160156 42.082031 33.90625 43.964844 C 32.242188 46.464844 30.628906 49.144531 29.449219 51.691406 C 23.207031 63.238281 19.261719 95.8125 19.261719 95.8125 L 46.550781 85.75 L 48.515625 75.25 L 49.476562 76.078125 C 54.800781 80.632812 62.480469 81.289062 68.445312 77.597656 C 76.234375 72.785156 84.347656 66.34375 84.347656 66.34375 Z M 390.480469 63.757812 L 316.175781 28.046875 L 302.394531 56.660156 C 304.207031 57.53125 309.339844 56.964844 315.371094 59.863281 C 321.390625 62.761719 323.902344 70.03125 320.964844 76.113281 C 318.039062 82.199219 310.78125 84.789062 304.765625 81.890625 C 298.730469 78.992188 295.972656 74.628906 294.164062 73.765625 L 280.386719 102.390625 L 309.078125 116.175781 C 308.195312 118 303.835938 120.828125 300.902344 126.917969 C 297.972656 133 300.476562 140.28125 306.492188 143.171875 C 312.507812 146.066406 319.769531 143.476562 322.695312 137.394531 C 325.628906 131.300781 325.117188 126.136719 325.992188 124.308594 L 354.683594 138.09375 L 358.429688 130.320312 L 362.996094 129.726562 L 363.6875 119.378906 L 364.699219 117.289062 L 370.855469 116.265625 L 368.714844 108.949219 Z M 390.480469 63.757812 "/><path style=" stroke:none;fill-rule:nonzero;fill:#09262c;fill-opacity:0.2;" d="M 99.035156 307.75 L 78.359375 307.75 C 78.359375 307.75 74.476562 272.898438 74.117188 272.367188 L 83.589844 213.96875 C 83.589844 213.96875 83.664062 212.234375 83.980469 209.992188 L 88.480469 208.867188 Z M 99.035156 307.75 "/><path style=" stroke:none;fill-rule:nonzero;fill:#e96852;fill-opacity:1;" d="M 59.355469 28.070312 C 56.84375 29.160156 48.910156 41.265625 45.441406 39.949219 C 41.96875 38.636719 41.066406 36.546875 41.066406 36.546875 C 41.066406 36.546875 38.816406 33.003906 38.957031 28.046875 C 38.957031 22.097656 43.785156 17.265625 49.746094 17.265625 C 51.558594 17.265625 53.261719 17.707031 54.753906 18.496094 C 59.394531 20.449219 62.816406 23.195312 62.816406 23.195312 C 62.816406 23.195312 61.871094 26.984375 59.355469 28.070312 Z M 445.902344 308.027344 L 431.457031 311.628906 L 422.269531 315.558594 L 417.191406 318.746094 L 415.300781 309.539062 L 409.085938 307.417969 L 398.945312 314.382812 L 393.515625 314.957031 L 387.761719 318.558594 C 386.003906 319.65625 385.148438 321.761719 385.644531 323.765625 L 449.59375 323.765625 C 449.386719 316.027344 445.902344 308.027344 445.902344 308.027344 Z M 345.949219 227.789062 C 345.949219 221.042969 340.535156 215.570312 333.851562 215.570312 C 327.171875 215.570312 321.757812 221.042969 321.757812 227.789062 C 321.757812 234.558594 324.460938 238.984375 324.460938 241.007812 L 292.625 241.007812 L 292.625 272.765625 C 294.632812 272.765625 299.019531 270.027344 305.710938 270.027344 C 312.390625 270.027344 317.804688 275.5 317.804688 282.25 C 317.804688 288.996094 312.390625 294.46875 305.710938 294.46875 C 299.019531 294.46875 294.632812 291.734375 292.625 291.734375 L 292.625 323.75 L 375.082031 323.75 L 375.082031 241.503906 L 343.246094 240.992188 C 343.238281 238.984375 345.949219 234.558594 345.949219 227.789062 Z M 105.347656 170.695312 L 84.519531 156.75 C 81.746094 154.894531 78.402344 154.074219 75.089844 154.445312 C 69.507812 155.066406 65.039062 159.367188 64.183594 164.910156 C 59.355469 196.242188 58.582031 219.144531 58.582031 219.144531 L 76.394531 219.691406 C 82.671875 219.890625 87.996094 215.121094 88.480469 208.867188 L 90.445312 183.886719 C 92.109375 185.914062 95.550781 187.773438 98.957031 189.25 C 104.898438 191.824219 111.84375 190.078125 115.832031 184.976562 C 121.867188 177.246094 128.628906 166.441406 128.628906 166.441406 L 118.6875 157.585938 Z M 105.347656 170.695312 "/><path style=" stroke:none;fill-rule:nonzero;fill:#fbbd9e;fill-opacity:1;" d="M 405.464844 140.992188 L 408.589844 137.996094 C 410.644531 133.777344 414.375 131.453125 414.375 131.453125 C 414.328125 131.480469 414.15625 131.886719 413.921875 132.480469 C 412.5625 135.933594 414.066406 139.859375 417.382812 141.523438 C 419.417969 142.730469 421.171875 141.503906 421.171875 141.503906 L 422.363281 141.964844 C 423.449219 142.386719 423.964844 143.621094 423.503906 144.691406 L 423.371094 144.996094 C 422.839844 146.238281 421.648438 147.011719 420.371094 147.074219 C 419.9375 147.09375 419.488281 147.03125 419.054688 146.878906 C 419.054688 146.878906 413.976562 150.601562 413.976562 153.472656 L 412.195312 153.472656 L 412.175781 151.402344 L 409.394531 150.269531 C 406.761719 149.199219 405.429688 146.257812 406.359375 143.585938 C 406.539062 143.070312 406.726562 142.539062 406.933594 142 L 405.554688 141.476562 C 405.367188 141.398438 405.3125 141.136719 405.464844 140.992188 Z M 94.128906 53.96875 C 94.480469 53.078125 94.378906 51.972656 93.425781 51.664062 C 93.820312 50.460938 92.550781 49.433594 91.589844 50.128906 C 89.867188 48.210938 87.203125 52.789062 85.285156 53.449219 L 84.042969 50.308594 C 84.042969 50.308594 77.601562 55.707031 77.242188 56.589844 L 83.4375 64.792969 C 92.335938 61.601562 94.046875 57.164062 94.433594 55.867188 C 94.820312 54.5625 94.128906 53.96875 94.128906 53.96875 Z M 55.089844 39.25 L 55.789062 37.402344 L 56.546875 37.546875 C 57.167969 37.664062 57.734375 37.179688 57.707031 36.546875 L 57.539062 32.824219 L 59.355469 28.0625 L 52.289062 25.140625 L 51.71875 26.039062 C 50.800781 27.515625 48.882812 28.007812 47.359375 27.164062 C 46.0625 26.445312 44.605469 27 44.128906 28.40625 L 43.992188 28.800781 C 43.371094 30.628906 44.234375 32.625 45.984375 33.425781 C 43.542969 36.601562 41.046875 36.546875 41.046875 36.546875 L 38.90625 40.425781 L 38.914062 40.425781 C 42.335938 39.570312 46.207031 40.832031 48.324219 44.171875 L 48.425781 44.332031 L 49.648438 41.8125 C 51.863281 42.558594 54.257812 41.425781 55.089844 39.25 Z M 363.699219 119.386719 L 362.519531 121.914062 C 362.519531 121.914062 357.941406 117.957031 356.835938 116.605469 C 355.726562 115.257812 354.132812 115.742188 354.234375 117.253906 C 353.042969 117.226562 353.429688 119.378906 353.429688 119.378906 C 351.925781 119.578125 353.71875 122.742188 353.71875 122.742188 C 353.71875 122.742188 353.035156 123.542969 353.429688 124.640625 C 353.449219 124.707031 353.476562 124.777344 353.511719 124.859375 C 354.792969 128.078125 357.042969 130.824219 359.914062 132.769531 L 361.292969 133.703125 L 369.722656 148.875 L 369.882812 149.171875 L 379.710938 137.519531 C 379.710938 137.519531 367.707031 123.238281 366.589844 121.914062 C 365.472656 120.59375 363.699219 119.386719 363.699219 119.386719 Z M 443.019531 296.160156 C 442.058594 285.40625 440.335938 267.367188 436.832031 257.855469 L 403.457031 257.511719 L 400.378906 310.476562 L 393.507812 314.949219 C 394.75 316.648438 397.0625 317.171875 398.910156 316.15625 L 408.070312 311.117188 C 410.277344 309.902344 412.789062 309.351562 415.300781 309.53125 C 414.515625 306.257812 421.398438 276.992188 421.425781 277.09375 C 421.441406 277.191406 429.0625 310.808594 429.0625 310.808594 L 422.28125 315.550781 C 423.8125 317.1875 426.277344 317.558594 428.222656 316.441406 L 445.910156 308.027344 C 445.902344 308.027344 443.847656 305.464844 443.019531 296.160156 Z M 373.488281 113.519531 C 372.179688 111.496094 370.261719 108.984375 369.894531 108.472656 C 369.523438 107.960938 366.183594 106.933594 365.75 107.410156 C 365.328125 107.886719 365.253906 108.515625 366.867188 109.355469 C 367.535156 109.722656 367.453125 111.578125 367.453125 111.578125 L 364.699219 117.300781 C 364.699219 117.300781 368.796875 119.296875 369.34375 119.953125 C 369.894531 120.609375 379.710938 137.527344 379.710938 137.527344 L 388.113281 127.207031 C 388.121094 127.199219 373.882812 114.132812 373.488281 113.519531 Z M 61.878906 133.082031 L 66.734375 129.941406 L 53.636719 125.378906 C 54.351562 125.496094 61.878906 133.082031 61.878906 133.082031 Z M 61.878906 133.082031 "/><path style=" stroke:none;fill-rule:nonzero;fill:#09262c;fill-opacity:0.1;" d="M 414.929688 323.765625 L 385.625 323.765625 C 385.132812 321.75 385.988281 319.65625 387.742188 318.558594 L 393.496094 314.957031 L 400.371094 310.484375 L 403.449219 257.519531 L 412.554688 249.269531 L 416.921875 257.664062 L 421.40625 277.101562 C 421.390625 277.003906 414.507812 306.273438 415.28125 309.539062 L 417.175781 318.746094 C 415.671875 319.980469 414.859375 321.851562 414.929688 323.765625 Z M 414.929688 323.765625 "/></g></svg>